# 3ds Max Wavefront OBJ Exporter v0.97b - (c)2007 guruware
# File Created: 30.12.2016 17:26:45

#
# object Box004
#

v  -8.1886 0.0000 8.6351
v  -8.1886 0.0000 -8.6351
v  8.1886 0.0000 -8.6351
v  8.1886 0.0000 8.6351
v  -1.0707 2.4354 0.7159
v  -0.7159 2.4354 1.0707
v  -0.7159 2.4354 -1.0707
v  -1.0707 2.4354 -0.7159
v  8.1886 0.2702 8.6351
v  -8.1886 0.2702 8.6351
v  8.6351 0.0000 8.1886
v  8.6351 0.0000 -8.1886
v  8.6351 0.2702 -8.1886
v  8.6351 0.2702 8.1886
v  -8.1886 0.2702 -8.6351
v  8.1886 0.2702 -8.6351
v  -8.6351 0.0000 -8.1886
v  -8.6351 0.0000 8.1886
v  -8.6351 0.2702 8.1886
v  -8.6351 0.2702 -8.1886
v  -8.1886 2.4149 8.6351
v  8.1886 2.4149 8.6351
v  7.6223 2.4149 8.0688
v  -7.6223 2.4149 8.0688
v  8.6351 2.4149 8.1886
v  8.6351 2.4149 -8.1886
v  8.0688 2.4149 -7.6223
v  8.0688 2.4149 7.6223
v  8.1886 2.4149 -8.6351
v  -8.1886 2.4149 -8.6351
v  -7.6223 2.4149 -8.0688
v  7.6223 2.4149 -8.0688
v  -8.6351 2.4149 -8.1886
v  -8.6351 2.4149 8.1886
v  -8.0688 2.4149 7.6223
v  -8.0688 2.4149 -7.6223
v  7.6223 2.1407 8.0688
v  -7.6223 2.1407 8.0688
v  8.0688 2.1407 -7.6223
v  8.0688 2.1407 7.6223
v  -7.6223 2.1407 -8.0688
v  7.6223 2.1407 -8.0688
v  -8.0688 2.1407 7.6223
v  -8.0688 2.1407 -7.6223
v  -7.6223 0.5307 8.0688
v  7.6223 0.5307 8.0688
v  7.4028 0.5307 7.8493
v  -7.4028 0.5307 7.8493
v  8.0688 0.5307 7.6223
v  8.0688 0.5307 -7.6223
v  7.8493 0.5307 -7.4028
v  7.8493 0.5307 7.4028
v  7.6223 0.5307 -8.0688
v  -7.6223 0.5307 -8.0688
v  -7.4028 0.5307 -7.8493
v  7.4028 0.5307 -7.8493
v  -8.0688 0.5307 -7.6223
v  -8.0688 0.5307 7.6223
v  -7.8493 0.5307 7.4028
v  -7.8493 0.5307 -7.4028
v  -2.0714 0.5307 2.5179
v  2.0714 0.5307 2.5179
v  0.8653 2.3108 1.3118
v  -0.8653 2.3108 1.3118
v  2.5179 0.5307 2.0714
v  2.5179 0.5307 -2.0714
v  1.3118 2.3108 -0.8653
v  1.3118 2.3108 0.8653
v  2.0714 0.5307 -2.5179
v  -2.0714 0.5307 -2.5179
v  -0.8653 2.3108 -1.3118
v  0.8653 2.3108 -1.3118
v  -2.5179 0.5307 -2.0714
v  -2.5179 0.5307 2.0714
v  -1.3118 2.3108 0.8653
v  -1.3118 2.3108 -0.8653
v  -8.6351 2.1383 8.1886
v  -8.1886 2.1383 8.6351
v  2.4717 0.5307 2.9182
v  -2.4717 0.5307 2.9182
v  2.9182 0.5307 -2.4717
v  2.9182 0.5307 2.4717
v  -2.4717 0.5307 -2.9182
v  2.4717 0.5307 -2.9182
v  -2.9182 0.5307 2.4717
v  -2.9182 0.5307 -2.4717
v  8.1886 2.1383 8.6351
v  8.6351 2.1383 -8.1886
v  8.6351 2.1383 8.1886
v  -8.1886 2.1383 -8.6351
v  8.1886 2.1383 -8.6351
v  -8.6351 2.1383 -8.1886
v  7.6223 0.7076 8.0688
v  -7.6223 0.7076 8.0688
v  8.0688 0.7076 -7.6223
v  8.0688 0.7076 7.6223
v  -7.6223 0.7076 -8.0688
v  7.6223 0.7076 -8.0688
v  -8.0688 0.7076 7.6223
v  -8.0688 0.7076 -7.6223
v  -0.7808 2.4354 1.2273
v  0.7808 2.4354 1.2273
v  0.7159 2.4354 1.0707
v  1.2273 2.4354 0.7808
v  1.0707 2.4354 0.7159
v  1.2273 2.4354 -0.7808
v  1.0707 2.4354 -0.7159
v  0.7808 2.4354 -1.2273
v  0.7159 2.4354 -1.0707
v  -0.7808 2.4354 -1.2273
v  -1.2273 2.4354 -0.7808
v  -1.2273 2.4354 0.7808
# 112 vertices

vn 0.0000 -1.0000 -0.0000
vn 0.0000 1.0000 -0.0000
vn 0.0000 0.0000 1.0000
vn 1.0000 0.0000 -0.0000
vn 0.0000 0.0000 -1.0000
vn -1.0000 0.0000 -0.0000
vn 0.0000 0.5609 0.8279
vn 0.8279 0.5609 -0.0000
vn 0.0000 0.5609 -0.8279
vn -0.8279 0.5609 -0.0000
vn 0.7071 0.0000 0.7071
vn -0.7071 0.0000 0.7071
vn 0.7071 0.0000 -0.7071
vn -0.7071 0.0000 -0.7071
vn -0.5105 0.6919 0.5105
vn 0.5105 0.6919 0.5105
vn 0.5105 0.6919 -0.5105
vn -0.5105 0.6919 -0.5105
# 18 vertex normals

vt 0.5521 0.7595 0.0000
vt 0.5521 0.5631 0.0000
vt 0.7383 0.5631 0.0000
vt 0.7383 0.7595 0.0000
vt 0.8374 0.6365 0.0000
vt 0.8414 0.6406 0.0000
vt 0.8171 0.6406 0.0000
vt 0.8211 0.6365 0.0000
vt 0.9299 0.8584 0.0000
vt 0.7436 0.8584 0.0000
vt 0.7436 0.8554 0.0000
vt 0.9299 0.8554 0.0000
vt 0.9349 0.7743 0.0000
vt 0.7487 0.7743 0.0000
vt 0.7487 0.7712 0.0000
vt 0.9349 0.7712 0.0000
vt 0.9299 0.8304 0.0000
vt 0.7436 0.8304 0.0000
vt 0.7436 0.8273 0.0000
vt 0.9299 0.8273 0.0000
vt 0.9349 0.8023 0.0000
vt 0.7487 0.8023 0.0000
vt 0.7487 0.7993 0.0000
vt 0.9349 0.7993 0.0000
vt 0.0554 0.6278 0.0000
vt 0.2417 0.6278 0.0000
vt 0.2353 0.6342 0.0000
vt 0.0619 0.6342 0.0000
vt 0.2468 0.6329 0.0000
vt 0.2468 0.8191 0.0000
vt 0.2403 0.8127 0.0000
vt 0.2403 0.6393 0.0000
vt 0.2417 0.8242 0.0000
vt 0.0554 0.8242 0.0000
vt 0.0619 0.8178 0.0000
vt 0.2353 0.8178 0.0000
vt 0.0504 0.8191 0.0000
vt 0.0504 0.6329 0.0000
vt 0.0568 0.6393 0.0000
vt 0.0568 0.8127 0.0000
vt 0.2470 0.7932 0.0000
vt 0.4203 0.7932 0.0000
vt 0.4203 0.7963 0.0000
vt 0.2470 0.7963 0.0000
vt 0.2520 0.7271 0.0000
vt 0.4254 0.7271 0.0000
vt 0.4254 0.7303 0.0000
vt 0.2520 0.7303 0.0000
vt 0.2470 0.7712 0.0000
vt 0.4203 0.7712 0.0000
vt 0.4203 0.7743 0.0000
vt 0.2470 0.7743 0.0000
vt 0.2520 0.7492 0.0000
vt 0.4254 0.7492 0.0000
vt 0.4254 0.7523 0.0000
vt 0.2520 0.7523 0.0000
vt 0.3402 0.6909 0.0000
vt 0.4330 0.6909 0.0000
vt 0.4317 0.6922 0.0000
vt 0.3415 0.6922 0.0000
vt 0.4357 0.6936 0.0000
vt 0.4357 0.7864 0.0000
vt 0.4344 0.7851 0.0000
vt 0.4344 0.6949 0.0000
vt 0.4330 0.7892 0.0000
vt 0.3402 0.7892 0.0000
vt 0.3415 0.7878 0.0000
vt 0.4317 0.7878 0.0000
vt 0.3374 0.7864 0.0000
vt 0.3374 0.6936 0.0000
vt 0.3388 0.6949 0.0000
vt 0.3388 0.7851 0.0000
vt 0.5898 0.7785 0.0000
vt 0.5898 0.8256 0.0000
vt 0.5653 0.8119 0.0000
vt 0.5653 0.7923 0.0000
vt 0.6190 0.7735 0.0000
vt 0.6190 0.8206 0.0000
vt 0.5946 0.8069 0.0000
vt 0.5946 0.7872 0.0000
vt 0.6482 0.7735 0.0000
vt 0.6482 0.8206 0.0000
vt 0.6238 0.8069 0.0000
vt 0.6238 0.7872 0.0000
vt 0.5870 0.8309 0.0000
vt 0.5870 0.8780 0.0000
vt 0.5625 0.8643 0.0000
vt 0.5625 0.8446 0.0000
vt 0.9400 0.7743 0.0000
vt 0.9400 0.7712 0.0000
vt 0.2470 0.6430 0.0000
vt 0.2520 0.6430 0.0000
vt 0.2520 0.6461 0.0000
vt 0.2470 0.6461 0.0000
vt 0.7436 0.7743 0.0000
vt 0.7436 0.7712 0.0000
vt 0.9400 0.8023 0.0000
vt 0.9400 0.7993 0.0000
vt 0.4305 0.7492 0.0000
vt 0.4305 0.7523 0.0000
vt 0.2470 0.7271 0.0000
vt 0.2470 0.7303 0.0000
vt 0.4305 0.7271 0.0000
vt 0.4305 0.7303 0.0000
vt 0.2470 0.7492 0.0000
vt 0.2470 0.7523 0.0000
vt 0.0615 0.7046 0.0000
vt 0.0642 0.7019 0.0000
vt 0.0656 0.7032 0.0000
vt 0.0628 0.7060 0.0000
vt 0.1571 0.7019 0.0000
vt 0.1598 0.7046 0.0000
vt 0.1585 0.7060 0.0000
vt 0.1557 0.7032 0.0000
vt 0.1598 0.7975 0.0000
vt 0.1571 0.8002 0.0000
vt 0.1557 0.7989 0.0000
vt 0.1585 0.7961 0.0000
vt 0.0642 0.8002 0.0000
vt 0.0615 0.7975 0.0000
vt 0.0628 0.7961 0.0000
vt 0.0656 0.7989 0.0000
vt 0.2528 0.6149 0.0000
vt 0.2557 0.6200 0.0000
vt 0.2312 0.6337 0.0000
vt 0.2284 0.6287 0.0000
vt 0.0746 0.8463 0.0000
vt 0.0718 0.8513 0.0000
vt 0.0473 0.8376 0.0000
vt 0.0501 0.8325 0.0000
vt 0.1038 0.8412 0.0000
vt 0.1010 0.8463 0.0000
vt 0.0765 0.8325 0.0000
vt 0.0794 0.8275 0.0000
vt 0.1330 0.8412 0.0000
vt 0.1302 0.8463 0.0000
vt 0.1057 0.8325 0.0000
vt 0.1086 0.8275 0.0000
vt 0.3427 0.6973 0.0000
vt 0.3382 0.7019 0.0000
vt 0.2911 0.7019 0.0000
vt 0.2865 0.6973 0.0000
vt 0.3478 0.7586 0.0000
vt 0.3433 0.7540 0.0000
vt 0.3433 0.7069 0.0000
vt 0.3478 0.7024 0.0000
vt 0.2865 0.7637 0.0000
vt 0.2911 0.7591 0.0000
vt 0.3382 0.7591 0.0000
vt 0.3427 0.7637 0.0000
vt 0.2814 0.7024 0.0000
vt 0.2860 0.7069 0.0000
vt 0.2860 0.7540 0.0000
vt 0.2814 0.7586 0.0000
vt 0.2597 0.6581 0.0000
vt 0.2643 0.6627 0.0000
vt 0.2592 0.6678 0.0000
vt 0.2546 0.6632 0.0000
vt 0.3210 0.6632 0.0000
vt 0.3165 0.6678 0.0000
vt 0.3114 0.6627 0.0000
vt 0.3159 0.6581 0.0000
vt 0.3159 0.7245 0.0000
vt 0.3114 0.7200 0.0000
vt 0.3165 0.7149 0.0000
vt 0.3210 0.7194 0.0000
vt 0.2546 0.7194 0.0000
vt 0.2592 0.7149 0.0000
vt 0.2643 0.7200 0.0000
vt 0.2597 0.7245 0.0000
vt 0.2470 0.7022 0.0000
vt 0.2470 0.6991 0.0000
vt 0.4332 0.6991 0.0000
vt 0.4332 0.7022 0.0000
vt 0.2520 0.6181 0.0000
vt 0.2520 0.6149 0.0000
vt 0.4383 0.6149 0.0000
vt 0.4383 0.6181 0.0000
vt 0.2470 0.6742 0.0000
vt 0.2470 0.6710 0.0000
vt 0.4332 0.6710 0.0000
vt 0.4332 0.6742 0.0000
vt 0.4383 0.6430 0.0000
vt 0.4383 0.6461 0.0000
vt 0.4434 0.6149 0.0000
vt 0.4434 0.6181 0.0000
vt 0.7487 0.7780 0.0000
vt 0.7436 0.7993 0.0000
vt 0.7436 0.7780 0.0000
vt 0.2470 0.6181 0.0000
vt 0.2470 0.6149 0.0000
vt 0.4434 0.6430 0.0000
vt 0.4434 0.6461 0.0000
vt 0.9170 0.9282 0.0000
vt 0.9170 0.9445 0.0000
vt 0.7436 0.9445 0.0000
vt 0.7436 0.9282 0.0000
vt 0.9221 0.8621 0.0000
vt 0.9221 0.8784 0.0000
vt 0.7487 0.8784 0.0000
vt 0.7487 0.8621 0.0000
vt 0.9170 0.9062 0.0000
vt 0.9170 0.9225 0.0000
vt 0.7436 0.9225 0.0000
vt 0.7436 0.9062 0.0000
vt 0.9221 0.8842 0.0000
vt 0.9221 0.9005 0.0000
vt 0.7487 0.9005 0.0000
vt 0.7487 0.8842 0.0000
vt 0.5900 0.8258 0.0000
vt 0.6063 0.8258 0.0000
vt 0.6063 0.8330 0.0000
vt 0.5900 0.8330 0.0000
vt 0.8434 0.6531 0.0000
vt 0.8434 0.6368 0.0000
vt 0.8506 0.6368 0.0000
vt 0.8506 0.6531 0.0000
vt 0.8153 0.6629 0.0000
vt 0.8316 0.6629 0.0000
vt 0.8316 0.6700 0.0000
vt 0.8153 0.6700 0.0000
vt 0.8434 0.6716 0.0000
vt 0.8434 0.6553 0.0000
vt 0.8506 0.6553 0.0000
vt 0.8506 0.6716 0.0000
vt 0.2756 0.7621 0.0000
vt 0.2756 0.7799 0.0000
vt 0.2738 0.7792 0.0000
vt 0.2738 0.7629 0.0000
vt 0.2705 0.7850 0.0000
vt 0.2698 0.7832 0.0000
vt 0.2527 0.7850 0.0000
vt 0.2535 0.7832 0.0000
vt 0.2477 0.7799 0.0000
vt 0.2494 0.7792 0.0000
vt 0.2477 0.7621 0.0000
vt 0.2494 0.7629 0.0000
vt 0.2527 0.7571 0.0000
vt 0.2535 0.7588 0.0000
vt 0.2705 0.7571 0.0000
vt 0.2698 0.7588 0.0000
vt 0.8414 0.6568 0.0000
vt 0.8374 0.6609 0.0000
vt 0.8211 0.6609 0.0000
vt 0.8171 0.6568 0.0000
vt 0.2294 0.7511 0.0000
vt 0.2277 0.7501 0.0000
vt 0.2277 0.7324 0.0000
vt 0.2294 0.7314 0.0000
vt 0.2586 0.7460 0.0000
vt 0.2569 0.7450 0.0000
vt 0.2569 0.7273 0.0000
vt 0.2586 0.7263 0.0000
vt 0.2878 0.7460 0.0000
vt 0.2861 0.7450 0.0000
vt 0.2861 0.7273 0.0000
vt 0.2878 0.7263 0.0000
vt 0.2266 0.8035 0.0000
vt 0.2248 0.8025 0.0000
vt 0.2248 0.7848 0.0000
vt 0.2266 0.7838 0.0000
vt 0.2248 0.7273 0.0000
vt 0.2266 0.7263 0.0000
vt 0.2266 0.7562 0.0000
vt 0.2248 0.7552 0.0000
vt 0.2558 0.7511 0.0000
vt 0.2540 0.7501 0.0000
vt 0.2850 0.7511 0.0000
vt 0.2833 0.7501 0.0000
vt 0.7436 0.8341 0.0000
vt 0.9299 0.8341 0.0000
vt 0.7487 0.7500 0.0000
vt 0.9349 0.7500 0.0000
vt 0.7436 0.8061 0.0000
vt 0.9299 0.8061 0.0000
vt 0.9349 0.7780 0.0000
vt 0.9400 0.7500 0.0000
vt 0.7436 0.7500 0.0000
vt 0.9400 0.7780 0.0000
vt 0.7436 0.8023 0.0000
vt 0.5470 0.7544 0.0000
vt 0.5470 0.5682 0.0000
vt 0.7434 0.5682 0.0000
vt 0.7434 0.7544 0.0000
vt 0.3565 0.8971 0.0000
vt 0.3565 0.8991 0.0000
vt 0.1831 0.8991 0.0000
vt 0.1831 0.8971 0.0000
vt 0.3615 0.8310 0.0000
vt 0.3615 0.8331 0.0000
vt 0.1882 0.8331 0.0000
vt 0.1882 0.8310 0.0000
vt 0.3565 0.8751 0.0000
vt 0.3565 0.8771 0.0000
vt 0.1831 0.8771 0.0000
vt 0.1831 0.8751 0.0000
vt 0.3615 0.8531 0.0000
vt 0.3615 0.8551 0.0000
vt 0.1882 0.8551 0.0000
vt 0.1882 0.8531 0.0000
vt 0.0458 0.7784 0.0000
vt 0.0478 0.7784 0.0000
vt 0.0478 0.7856 0.0000
vt 0.0458 0.7856 0.0000
vt 0.2828 0.5894 0.0000
vt 0.2828 0.5873 0.0000
vt 0.2900 0.5873 0.0000
vt 0.2900 0.5894 0.0000
vt 0.2710 0.6155 0.0000
vt 0.2730 0.6155 0.0000
vt 0.2730 0.6226 0.0000
vt 0.2710 0.6226 0.0000
vt 0.2828 0.6079 0.0000
vt 0.2828 0.6059 0.0000
vt 0.2900 0.6059 0.0000
vt 0.2900 0.6079 0.0000
vt 0.9196 0.5656 0.0000
vt 0.8635 0.6217 0.0000
vt 0.8073 0.6217 0.0000
vt 0.7512 0.5656 0.0000
vt 0.9246 0.7390 0.0000
vt 0.8686 0.6830 0.0000
vt 0.8686 0.6267 0.0000
vt 0.9246 0.5707 0.0000
vt 0.7512 0.7441 0.0000
vt 0.8073 0.6880 0.0000
vt 0.8635 0.6880 0.0000
vt 0.9196 0.7441 0.0000
vt 0.7461 0.5707 0.0000
vt 0.8022 0.6267 0.0000
vt 0.8022 0.6830 0.0000
vt 0.7461 0.7390 0.0000
vt 0.2360 0.5862 0.0000
vt 0.2921 0.6423 0.0000
vt 0.2870 0.6474 0.0000
vt 0.2309 0.5913 0.0000
vt 0.4095 0.5913 0.0000
vt 0.3534 0.6474 0.0000
vt 0.3483 0.6423 0.0000
vt 0.4044 0.5862 0.0000
vt 0.4044 0.7647 0.0000
vt 0.3483 0.7087 0.0000
vt 0.3534 0.7036 0.0000
vt 0.4095 0.7597 0.0000
vt 0.2309 0.7597 0.0000
vt 0.2870 0.7036 0.0000
vt 0.2921 0.7087 0.0000
vt 0.2360 0.7647 0.0000
# 348 texture coords

g Box004
s 1
f 1/1/1 2/2/1 3/3/1 4/4/1 
f 5/5/2 6/6/2 7/7/2 8/8/2 
s 2
f 1/9/3 4/10/3 9/11/3 10/12/3 
f 11/13/4 12/14/4 13/15/4 14/16/4 
f 3/17/5 2/18/5 15/19/5 16/20/5 
f 17/21/6 18/22/6 19/23/6 20/24/6 
s 1
f 21/25/2 22/26/2 23/27/2 24/28/2 
f 25/29/2 26/30/2 27/31/2 28/32/2 
f 29/33/2 30/34/2 31/35/2 32/36/2 
f 33/37/2 34/38/2 35/39/2 36/40/2 
s 2
f 24/41/5 23/42/5 37/43/5 38/44/5 
f 28/45/6 27/46/6 39/47/6 40/48/6 
f 32/49/3 31/50/3 41/51/3 42/52/3 
f 36/53/4 35/54/4 43/55/4 44/56/4 
s 1
f 45/57/2 46/58/2 47/59/2 48/60/2 
f 49/61/2 50/62/2 51/63/2 52/64/2 
f 53/65/2 54/66/2 55/67/2 56/68/2 
f 57/69/2 58/70/2 59/71/2 60/72/2 
s 2
f 61/73/7 62/74/7 63/75/7 64/76/7 
f 65/77/8 66/78/8 67/79/8 68/80/8 
f 69/81/9 70/82/9 71/83/9 72/84/9 
f 73/85/10 74/86/10 75/87/10 76/88/10 
s 4
f 4/89/11 11/13/11 14/16/11 9/90/11 
f 21/91/12 34/92/12 77/93/12 78/94/12 
f 12/14/13 3/95/13 16/96/13 13/15/13 
f 2/97/14 17/21/14 20/24/14 15/98/14 
s 1
f 34/38/2 21/25/2 24/28/2 35/39/2 
f 22/26/2 25/29/2 28/32/2 23/27/2 
f 26/30/2 29/33/2 32/36/2 27/31/2 
f 30/34/2 33/37/2 36/40/2 31/35/2 
s 4
f 35/54/13 24/99/13 38/100/13 43/55/13 
f 23/101/14 28/45/14 40/48/14 37/102/14 
f 27/46/12 32/103/12 42/104/12 39/47/12 
f 31/105/11 36/53/11 44/56/11 41/106/11 
s 1
f 58/107/2 45/108/2 48/109/2 59/110/2 
f 46/111/2 49/112/2 52/113/2 47/114/2 
f 50/115/2 53/116/2 56/117/2 51/118/2 
f 54/119/2 57/120/2 60/121/2 55/122/2 
s 4
f 74/123/15 61/124/15 64/125/15 75/126/15 
f 62/127/16 65/128/16 68/129/16 63/130/16 
f 66/131/17 69/132/17 72/133/17 67/134/17 
f 70/135/18 73/136/18 76/137/18 71/138/18 
s 1
f 79/139/2 62/140/2 61/141/2 80/142/2 
f 81/143/2 66/144/2 65/145/2 82/146/2 
f 83/147/2 70/148/2 69/149/2 84/150/2 
f 85/151/2 74/152/2 73/153/2 86/154/2 
f 80/155/2 61/156/2 74/157/2 85/158/2 
f 82/159/2 65/160/2 62/161/2 79/162/2 
f 84/163/2 69/164/2 66/165/2 81/166/2 
f 86/167/2 73/168/2 70/169/2 83/170/2 
s 2
f 87/171/3 22/172/3 21/173/3 78/174/3 
f 88/175/4 26/176/4 25/177/4 89/178/4 
f 90/179/5 30/180/5 29/181/5 91/182/5 
f 77/93/6 34/92/6 33/183/6 92/184/6 
s 4
f 89/178/11 25/177/11 22/185/11 87/186/11 
f 77/187/12 19/23/12 10/188/12 78/189/12 
f 91/190/13 29/191/13 26/176/13 88/175/13 
f 92/184/14 33/183/14 30/192/14 90/193/14 
s 2
f 37/194/5 93/195/5 94/196/5 38/197/5 
f 39/198/6 95/199/6 96/200/6 40/201/6 
f 41/202/3 97/203/3 98/204/3 42/205/3 
f 43/206/4 99/207/4 100/208/4 44/209/4 
s 4
f 38/210/13 94/211/13 99/212/13 43/213/13 
f 40/214/14 96/215/14 93/216/14 37/217/14 
f 42/218/12 98/219/12 95/220/12 39/221/12 
f 44/222/11 100/223/11 97/224/11 41/225/11 
s off
f 101/226/2 102/227/2 103/228/2 6/229/2 
f 102/227/2 104/230/2 105/231/2 103/228/2 
f 104/230/2 106/232/2 107/233/2 105/231/2 
f 106/232/2 108/234/2 109/235/2 107/233/2 
f 108/234/2 110/236/2 7/237/2 109/235/2 
f 110/236/2 111/238/2 8/239/2 7/237/2 
f 111/238/2 112/240/2 5/241/2 8/239/2 
f 112/240/2 101/226/2 6/229/2 5/241/2 
s 1
f 103/242/2 105/243/2 107/244/2 109/245/2 
f 6/6/2 103/242/2 109/245/2 7/7/2 
s 2
f 63/246/7 102/247/7 101/248/7 64/249/7 
f 67/250/8 106/251/8 104/252/8 68/253/8 
f 71/254/9 110/255/9 108/256/9 72/257/9 
f 75/258/10 112/259/10 111/260/10 76/261/10 
s 4
f 64/249/15 101/248/15 112/262/15 75/263/15 
f 68/264/16 104/265/16 102/247/16 63/246/16 
f 72/266/17 108/267/17 106/251/17 67/250/17 
f 76/268/18 111/269/18 110/255/18 71/254/18 
s 2
f 9/11/3 87/270/3 78/271/3 10/12/3 
f 13/15/4 88/272/4 89/273/4 14/16/4 
f 15/19/5 90/274/5 91/275/5 16/20/5 
f 19/23/6 77/187/6 92/276/6 20/24/6 
s 4
f 14/16/11 89/273/11 87/277/11 9/90/11 
f 16/96/13 91/278/13 88/272/13 13/15/13 
f 20/24/14 92/276/14 90/279/14 15/98/14 
f 19/23/12 18/22/12 1/280/12 10/188/12 
s 1
f 1/1/1 18/281/1 17/282/1 2/2/1 
f 3/3/1 12/283/1 11/284/1 4/4/1 
s 2
f 93/285/5 46/286/5 45/287/5 94/288/5 
f 95/289/6 50/290/6 49/291/6 96/292/6 
f 97/293/3 54/294/3 53/295/3 98/296/3 
f 99/297/4 58/298/4 57/299/4 100/300/4 
s 4
f 94/301/13 45/302/13 58/303/13 99/304/13 
f 96/305/14 49/306/14 46/307/14 93/308/14 
f 98/309/12 53/310/12 50/311/12 95/312/12 
f 100/313/11 57/314/11 54/315/11 97/316/11 
s 1
f 47/317/2 79/318/2 80/319/2 48/320/2 
f 51/321/2 81/322/2 82/323/2 52/324/2 
f 55/325/2 83/326/2 84/327/2 56/328/2 
f 59/329/2 85/330/2 86/331/2 60/332/2 
f 48/333/2 80/334/2 85/335/2 59/336/2 
f 52/337/2 82/338/2 79/339/2 47/340/2 
f 56/341/2 84/342/2 81/343/2 51/344/2 
f 60/345/2 86/346/2 83/347/2 55/348/2 
# 110 polygons

