# 3ds Max Wavefront OBJ Exporter v0.97b - (c)2007 guruware
# File Created: 07.09.2017 23:07:03

#
# object outer_wall
#

v  1380.6033 -115.9791 -782.5203
v  1380.6033 -115.9791 674.7568
v  -1504.4683 -115.9791 674.7568
v  -1504.4683 -115.9791 -782.5203
v  1380.6034 1271.0371 674.7568
v  -1504.4683 1271.0371 674.7568
v  1380.6034 1271.0371 -782.5203
v  -1504.4683 1271.0371 -782.5203
# 8 vertices

vn 0.0000 -1.0000 -0.0000
vn 0.0000 0.0000 1.0000
vn 1.0000 -0.0000 -0.0000
vn 0.0000 0.0000 -1.0000
vn -1.0000 0.0000 -0.0000
# 5 vertex normals

vt -3.6432 0.0000 0.0000
vt -3.6432 -3.6432 0.0000
vt -10.8559 -3.6432 0.0000
vt -10.8559 0.0000 0.0000
vt -0.0000 3.5588 0.0000
vt 7.2127 3.5588 0.0000
vt 7.2127 -0.0000 0.0000
vt -0.0000 0.0000 0.0000
vt -3.6432 3.5588 0.0000
vt -10.8559 3.5588 0.0000
vt -14.4991 3.5588 0.0000
vt -14.4991 0.0000 0.0000
# 12 texture coords

g outer_wall
s 2
f 1/1/1 2/2/1 3/3/1 4/4/1 
s 8
f 5/5/2 6/6/2 3/7/2 2/8/2 
s 16
f 7/9/3 5/5/3 2/8/3 1/1/3 
s 32
f 8/10/4 7/9/4 1/1/4 4/4/4 
s 64
f 6/11/5 8/10/5 4/4/5 3/12/5 
# 5 polygons

